<svg width="28" height="36" viewBox="0 0 28 36" fill="none" xmlns="http://www.w3.org/2000/svg">
<path d="M14 3.66659C17.6666 3.66659 20.6666 6.66658 20.6666 10.3333C20.6666 13.8333 17.1666 19.4999 14 23.4999C10.8333 19.3333 7.33329 13.8333 7.33329 10.3333C7.33329 6.66658 10.3333 3.66659 14 3.66659ZM14 0.333252C8.49996 0.333252 3.99996 4.83325 3.99996 10.3333C3.99996 17.8333 14 28.6666 14 28.6666C14 28.6666 24 17.6666 24 10.3333C24 4.83325 19.5 0.333252 14 0.333252ZM14 6.99992C12.1666 6.99992 10.6666 8.49992 10.6666 10.3333C10.6666 12.1666 12.1666 13.6666 14 13.6666C15.8333 13.6666 17.3333 12.1666 17.3333 10.3333C17.3333 8.49992 15.8333 6.99992 14 6.99992ZM27.3333 28.6666C27.3333 32.3333 21.3333 35.3333 14 35.3333C6.66663 35.3333 0.666626 32.3333 0.666626 28.6666C0.666626 26.4999 2.66663 24.6666 5.83329 23.3333L6.83329 24.8333C5.16663 25.6666 3.99996 26.6666 3.99996 27.8333C3.99996 30.1666 8.49996 31.9999 14 31.9999C19.5 31.9999 24 30.1666 24 27.8333C24 26.6666 22.8333 25.6666 21 24.8333L22 23.3333C25.3333 24.6666 27.3333 26.4999 27.3333 28.6666Z" fill="#303030"/>
</svg>
