<svg width="29" height="28" viewBox="0 0 29 28" fill="none" xmlns="http://www.w3.org/2000/svg">
<path d="M27.2997 10.8384C27.1745 10.4525 26.9459 10.1082 26.6388 9.84313C26.3316 9.57804 25.9576 9.40221 25.5575 9.33478L25.5447 9.33245L19.2218 8.30483L16.2903 2.60922C16.1044 2.24731 15.8226 1.94345 15.4757 1.73086C15.1288 1.51828 14.7301 1.40514 14.3233 1.40382C13.9164 1.4025 13.517 1.51304 13.1687 1.72337C12.8205 1.9337 12.5367 2.23572 12.3485 2.59642L12.3427 2.60806L9.41107 8.30366L3.08819 9.33129C2.6859 9.39742 2.30955 9.57291 2.0003 9.83856C1.69105 10.1042 1.46081 10.4498 1.33478 10.8375C1.20874 11.2252 1.19176 11.6401 1.2857 12.0369C1.37963 12.4336 1.58086 12.7968 1.86737 13.0869L6.37939 17.635L5.40297 23.966C5.33981 24.3705 5.38981 24.7846 5.54746 25.1624C5.70511 25.5402 5.96425 25.8671 6.29618 26.1067C6.62811 26.3463 7.01989 26.4894 7.42813 26.5202C7.83638 26.5509 8.24516 26.468 8.60922 26.2808L8.59642 26.2866L14.3153 23.4015L20.0353 26.2866C20.4004 26.4708 20.8092 26.5505 21.2167 26.517C21.6241 26.4836 22.0145 26.3382 22.3446 26.0969C22.6747 25.8557 22.9317 25.5279 23.0873 25.1499C23.2429 24.7718 23.2911 24.3581 23.2265 23.9544L23.2276 23.9672L22.2512 17.6361L26.7632 13.088C27.0542 12.7976 27.258 12.4316 27.3518 12.0314C27.4456 11.6312 27.4256 11.2127 27.2939 10.8233L27.2986 10.8384H27.2997ZM25.525 11.8579L20.3938 17.0309L21.5052 24.2325C21.5189 24.319 21.5083 24.4076 21.4746 24.4885C21.441 24.5693 21.3855 24.6393 21.3145 24.6905C21.2435 24.7417 21.1596 24.7723 21.0723 24.7788C20.985 24.7852 20.8975 24.7673 20.8197 24.7271L20.8221 24.7283L14.3165 21.4464L7.81086 24.7283C7.73293 24.7683 7.6454 24.7859 7.55806 24.7791C7.47071 24.7722 7.38699 24.7412 7.31624 24.6896C7.24549 24.6379 7.1905 24.5676 7.15741 24.4864C7.12432 24.4053 7.11444 24.3166 7.12888 24.2302V24.2325L8.2403 17.0309L3.10914 11.8579C3.04766 11.7963 3.00436 11.7189 2.98399 11.6342C2.96362 11.5496 2.96697 11.461 2.99367 11.3781C3.02036 11.2953 3.06938 11.2214 3.13533 11.1646C3.20127 11.1077 3.2816 11.0702 3.3675 11.056H3.36983L10.5621 9.88758L13.8963 3.40875C13.9363 3.33182 13.9966 3.26731 14.0706 3.22221C14.1447 3.17711 14.2296 3.15314 14.3163 3.1529C14.403 3.15266 14.4881 3.17616 14.5624 3.22085C14.6367 3.26554 14.6973 3.32972 14.7378 3.40642L14.7389 3.40875L18.0732 9.88758L25.2654 11.056C25.3513 11.0702 25.4316 11.1077 25.4976 11.1645C25.5635 11.2212 25.6127 11.2949 25.6396 11.3777C25.6665 11.4604 25.6701 11.549 25.6501 11.6337C25.6301 11.7184 25.5872 11.7959 25.5261 11.8579H25.525Z" fill="black"/>
</svg>
