<svg width="34" height="34" viewBox="0 0 34 34" fill="none" xmlns="http://www.w3.org/2000/svg">
<path d="M18.6667 0.383301V3.74997C25.9834 4.64997 31.1667 11.3 30.2667 18.6166C29.5001 24.6833 24.7334 29.5 18.6667 30.2166V33.55C27.8334 32.6333 34.5001 24.5 33.5834 15.3333C32.8334 7.41663 26.5501 1.16663 18.6667 0.383301ZM15.3334 0.433301C12.0834 0.749967 8.98342 1.99997 6.45008 4.09997L8.83342 6.56663C10.7001 5.06663 12.9501 4.09997 15.3334 3.76663V0.433301ZM4.10008 6.44997C2.01617 8.97887 0.733751 12.0718 0.416748 15.3333H3.75008C4.06675 12.9666 5.00008 10.7166 6.48342 8.8333L4.10008 6.44997ZM0.433415 18.6666C0.766748 21.9333 2.05008 25.0166 4.11675 27.55L6.48342 25.1666C5.01163 23.2826 4.07334 21.0376 3.76675 18.6666H0.433415ZM8.83342 27.6166L6.45008 29.9C8.97471 32.0045 12.0655 33.315 15.3334 33.6666V30.3333C12.9624 30.0267 10.7174 29.0884 8.83342 27.6166ZM17.8334 8.66663V17.4166L25.3334 21.8666L24.0834 23.9166L15.3334 18.6666V8.66663H17.8334Z" fill="#303030"/>
</svg>
