<svg width="18" height="30" viewBox="0 0 18 30" fill="none" xmlns="http://www.w3.org/2000/svg">
<path d="M9.66666 13.1667C5.88333 12.1833 4.66666 11.1667 4.66666 9.58333C4.66666 7.76667 6.34999 6.5 9.16666 6.5C12.1333 6.5 13.2333 7.91667 13.3333 10H17.0167C16.9 7.13333 15.15 4.5 11.6667 3.65V0H6.66666V3.6C3.43332 4.3 0.833325 6.4 0.833325 9.61667C0.833325 13.4667 4.01666 15.3833 8.66666 16.5C12.8333 17.5 13.6667 18.9667 13.6667 20.5167C13.6667 21.6667 12.85 23.5 9.16666 23.5C5.73333 23.5 4.38333 21.9667 4.19999 20H0.533325C0.733325 23.65 3.46666 25.7 6.66666 26.3833V30H11.6667V26.4167C14.9167 25.8 17.5 23.9167 17.5 20.5C17.5 15.7667 13.45 14.15 9.66666 13.1667Z" fill="#303030"/>
</svg>
